<svg width="32" height="32" viewBox="0 0 32 32" fill="none" xmlns="http://www.w3.org/2000/svg">
<g clip-path="url(#clip0_1_2)">
<path d="M23.7159 28.2841C22.6629 28.2841 21.7462 28.0189 20.9659 27.4886C20.1932 26.9583 19.6061 26.178 19.2045 25.1477L16.25 16.7045L14.3409 11.9318L13.6818 10.2955C13.4242 9.65151 13.1553 9.17803 12.875 8.875C12.6023 8.56439 12.2576 8.39394 11.8409 8.36364C11.4318 8.33333 10.8864 8.41667 10.2045 8.61364L9.11364 4.86364C9.50758 4.7197 9.91288 4.60985 10.3295 4.53409C10.7538 4.45076 11.2083 4.40909 11.6932 4.40909C13.1402 4.40909 14.3864 4.77273 15.4318 5.5C16.4773 6.22727 17.2614 7.2803 17.7841 8.65909L23.1136 22.6818C23.3636 23.3485 23.5909 23.822 23.7955 24.1023C24 24.3826 24.3106 24.5227 24.7273 24.5227C24.8106 24.5227 24.8977 24.5189 24.9886 24.5114C25.0795 24.4962 25.1553 24.4848 25.2159 24.4773L25.6477 28.0341C25.428 28.1098 25.1326 28.1705 24.7614 28.2159C24.3977 28.2689 24.0492 28.2917 23.7159 28.2841ZM7.79545 28L14.7159 9.65909L17.75 17.6136H16.3409L12.7727 28H7.79545Z" fill="#7E22CE"/>
</g>
<defs>
<clipPath id="clip0_1_2">
<rect width="32" height="32" fill="white"/>
</clipPath>
</defs>
</svg>
